<?xml version="1.0" encoding="UTF-8" standalone="no"?>
<!-- Created with Inkscape (http://www.inkscape.org/) -->

<svg
   xmlns:dc="http://purl.org/dc/elements/1.1/"
   xmlns:cc="http://creativecommons.org/ns#"
   xmlns:rdf="http://www.w3.org/1999/02/22-rdf-syntax-ns#"
   xmlns:svg="http://www.w3.org/2000/svg"
   xmlns="http://www.w3.org/2000/svg"
   xmlns:sodipodi="http://sodipodi.sourceforge.net/DTD/sodipodi-0.dtd"
   xmlns:inkscape="http://www.inkscape.org/namespaces/inkscape"
   width="400"
   height="400"
   viewBox="0 0 105.83333 105.83333"
   version="1.1"
   id="svg1448"
   inkscape:version="0.92.3 (2405546, 2018-03-11)"
   sodipodi:docname="valida.svg">
  <defs
     id="defs1442" />
  <sodipodi:namedview
     id="base"
     pagecolor="#ffffff"
     bordercolor="#666666"
     borderopacity="1.0"
     inkscape:pageopacity="0.0"
     inkscape:pageshadow="2"
     inkscape:zoom="0.98994949"
     inkscape:cx="136.46228"
     inkscape:cy="212.33297"
     inkscape:document-units="mm"
     inkscape:current-layer="layer1"
     showgrid="false"
     units="px"
     inkscape:window-width="1875"
     inkscape:window-height="1025"
     inkscape:window-x="45"
     inkscape:window-y="27"
     inkscape:window-maximized="1" />
  <metadata
     id="metadata1445">
    <rdf:RDF>
      <cc:Work
         rdf:about="">
        <dc:format>image/svg+xml</dc:format>
        <dc:type
           rdf:resource="http://purl.org/dc/dcmitype/StillImage" />
        <dc:title></dc:title>
      </cc:Work>
    </rdf:RDF>
  </metadata>
  <g
     inkscape:label="Capa 1"
     inkscape:groupmode="layer"
     id="layer1"
     transform="translate(0,-191.16667)">
    <g
       id="g32"
       transform="matrix(0.35277777,0,0,-0.35277777,131.5742,231.63249)">
      <path
         d="m 0,0 c -1.445,4.489 -5.651,7.738 -10.62,7.738 -2.525,0 -4.845,-0.847 -6.715,-2.26 -0.853,0.76 -1.852,1.356 -2.951,1.745 -0.628,6.217 -5.878,11.07 -12.261,11.07 -0.499,0 -0.988,-0.039 -1.472,-0.096 -3.239,4.455 -8.477,7.363 -14.407,7.363 -1.89,0 -3.71,-0.3 -5.42,-0.845 -2.836,2.256 -6.42,3.613 -10.325,3.613 -6.848,0 -12.724,-4.145 -15.266,-10.061 -0.173,0.005 -0.343,0.026 -0.518,0.026 -8.098,0 -14.687,-6.382 -15.056,-14.388 -0.579,0.089 -1.167,0.149 -1.769,0.149 -6.389,0 -11.568,-5.179 -11.568,-11.567 0,-6.388 5.179,-11.568 11.568,-11.568 1.41,0 2.756,0.266 4.007,0.728 0.685,-8.18 7.531,-14.608 15.888,-14.608 5.424,0 10.208,2.712 13.092,6.849 2.15,-0.998 4.539,-1.572 7.066,-1.572 0.665,0 1.318,0.049 1.962,0.124 2.588,-3.459 6.704,-5.708 11.357,-5.708 5.741,0 10.674,3.416 12.907,8.322 2.603,-1.727 5.721,-2.738 9.078,-2.738 4.817,0 9.135,2.083 12.144,5.382 1.235,-0.425 2.555,-0.667 3.936,-0.667 6.689,0 12.112,5.423 12.112,12.112 C 6.769,-6.088 4.006,-1.976 0,0"
         style="fill:#ffffff;fill-opacity:0;fill-rule:nonzero;stroke:none"
         id="path34"
         inkscape:connector-curvature="0" />
    </g>
    <g
       id="g36"
       transform="matrix(0.35277777,0,0,-0.35277777,23.513613,226.65603)">
      <path
         d="m 0,0 c -1.447,4.495 -5.659,7.749 -10.635,7.749 -2.527,0 -4.851,-0.849 -6.723,-2.264 -0.854,0.761 -1.854,1.358 -2.956,1.747 -0.628,6.226 -5.885,11.085 -12.276,11.085 -0.5,0 -0.99,-0.038 -1.473,-0.096 -3.245,4.461 -8.49,7.373 -14.428,7.373 -1.893,0 -3.715,-0.3 -5.426,-0.846 -2.84,2.259 -6.429,3.618 -10.34,3.618 -6.856,0 -12.74,-4.151 -15.285,-10.075 -0.174,0.006 -0.344,0.026 -0.52,0.026 -8.108,0 -14.705,-6.39 -15.076,-14.407 -0.579,0.089 -1.168,0.15 -1.772,0.15 -6.396,0 -11.582,-5.186 -11.582,-11.583 0,-6.397 5.186,-11.582 11.582,-11.582 1.413,0 2.761,0.265 4.013,0.728 0.687,-8.191 7.541,-14.627 15.909,-14.627 5.432,0 10.223,2.715 13.11,6.857 2.153,-0.999 4.545,-1.573 7.076,-1.573 0.665,0 1.319,0.049 1.965,0.124 2.59,-3.464 6.712,-5.717 11.371,-5.717 5.748,0 10.688,3.422 12.924,8.334 2.606,-1.729 5.729,-2.741 9.09,-2.741 4.823,0 9.148,2.086 12.16,5.389 1.237,-0.426 2.56,-0.668 3.941,-0.668 6.698,0 12.128,5.43 12.128,12.128 C 6.777,-6.096 4.011,-1.978 0,0"
         style="fill:#ffffff;fill-opacity:0.12658231;fill-rule:nonzero;stroke:none"
         id="path38"
         inkscape:connector-curvature="0" />
    </g>
    <g
       transform="matrix(0.26441736,0,0,-0.27164839,-13.322904,310.40789)"
       id="g1421">
      <g
         style="fill:#ededed;fill-opacity:1"
         transform="translate(426.873,88.7637)"
         id="g24">
        <path
           inkscape:connector-curvature="0"
           id="path26"
           style="fill:#ededed;fill-opacity:1;fill-rule:nonzero;stroke:none"
           d="m 0,0 h -353.746 c -6.75,0 -12.222,5.472 -12.222,12.222 0,6.749 5.472,12.221 12.222,12.221 L 0,24.443 c 6.75,0 12.222,-5.472 12.222,-12.221 C 12.222,5.472 6.75,0 0,0" />
      </g>
      <g
         transform="translate(221.3296,433.6641)"
         id="g28">
        <path
           inkscape:connector-curvature="0"
           id="path30"
           style="fill:#ffffff;fill-opacity:0;fill-rule:nonzero;stroke:none"
           d="m 0,0 c -1.185,3.679 -4.633,6.344 -8.706,6.344 -2.069,0 -3.971,-0.696 -5.504,-1.854 -0.7,0.623 -1.519,1.112 -2.42,1.43 -0.515,5.098 -4.818,9.076 -10.05,9.076 -0.409,0 -0.81,-0.032 -1.206,-0.079 -2.656,3.652 -6.95,6.036 -11.811,6.036 -1.55,0 -3.042,-0.246 -4.443,-0.693 -2.325,1.849 -5.263,2.962 -8.464,2.962 -5.614,0 -10.431,-3.398 -12.514,-8.248 -0.142,0.005 -0.282,0.022 -0.425,0.022 -6.638,0 -12.04,-5.232 -12.343,-11.795 -0.474,0.073 -0.956,0.122 -1.45,0.122 -5.237,0 -9.482,-4.245 -9.482,-9.482 0,-5.237 4.245,-9.482 9.482,-9.482 1.156,0 2.26,0.217 3.284,0.596 0.563,-6.705 6.174,-11.975 13.025,-11.975 4.447,0 8.369,2.224 10.733,5.614 1.763,-0.818 3.72,-1.288 5.792,-1.288 0.545,0 1.08,0.04 1.609,0.102 2.121,-2.836 5.495,-4.68 9.309,-4.68 4.706,0 8.75,2.801 10.581,6.822 2.133,-1.415 4.69,-2.244 7.441,-2.244 3.949,0 7.489,1.708 9.955,4.412 1.013,-0.348 2.096,-0.547 3.227,-0.547 5.484,0 9.928,4.446 9.928,9.929 0,3.909 -2.264,7.28 -5.548,8.9" />
      </g>
      <g
         transform="translate(355.6875,104.0039)"
         id="g40">
        <path
           inkscape:connector-curvature="0"
           id="path42"
           style="fill:#672342;fill-opacity:1;fill-rule:nonzero;stroke:none"
           d="m 0,0 -212.702,0.992 c -5.798,0.027 -10.478,4.749 -10.45,10.548 l 1.229,263.551 c 0.027,5.799 4.749,10.478 10.548,10.451 L 1.327,284.55 c 5.799,-0.027 10.478,-4.75 10.45,-10.549 L 10.549,10.45 C 10.521,4.651 5.799,-0.027 0,0" />
      </g>
      <g
         transform="translate(353.9238,110.2168)"
         id="g44">
        <path
           inkscape:connector-curvature="0"
           id="path46"
           style="fill:#2f4356;fill-opacity:1;fill-rule:nonzero;stroke:none"
           d="m 0,0 -213.6,0.996 1.24,265.814 213.6,-0.997 z" />
      </g>
      <g
         style="fill:#ffffff;fill-opacity:1"
         transform="translate(353.9385,113.3799)"
         id="g48">
        <path
           inkscape:connector-curvature="0"
           id="path50"
           style="fill:#ffffff;fill-opacity:1;fill-rule:nonzero;stroke:none"
           d="m 0,0 -209.116,0.976 1.24,265.812 209.116,-0.975 z" />
      </g>
      <path
         inkscape:connector-curvature="0"
         id="path52"
         style="fill:#002b74;fill-opacity:1;fill-rule:nonzero;stroke:none"
         d="m 305.027,301.322 h 26.065 v 26.066 h -26.065 z m 27.782,-1.715 h -29.496 v 29.497 h 29.496 z" />
      <path
         inkscape:connector-curvature="0"
         id="path54"
         style="fill:#2f4356;fill-opacity:1;fill-rule:nonzero;stroke:none"
         d="m 169.062,323.362 h 61.288 v 5.742 h -61.288 z" />
      <path
         inkscape:connector-curvature="0"
         id="path56"
         style="fill:#ededed;fill-opacity:1;fill-rule:nonzero;stroke:none"
         d="m 169.062,315.273 h 117.156 v 1.953 H 169.062 Z" />
      <path
         inkscape:connector-curvature="0"
         id="path58"
         style="fill:#ededed;fill-opacity:1;fill-rule:nonzero;stroke:none"
         d="m 169.062,307.44 h 117.156 v 1.953 H 169.062 Z" />
      <path
         inkscape:connector-curvature="0"
         id="path60"
         style="fill:#ededed;fill-opacity:1;fill-rule:nonzero;stroke:none"
         d="m 169.062,299.607 h 117.156 v 1.953 H 169.062 Z" />
      <path
         inkscape:connector-curvature="0"
         id="path62"
         style="fill:#002b74;fill-opacity:1;fill-rule:nonzero;stroke:none"
         d="m 305.027,243.384 h 26.065 v 26.066 h -26.065 z m 27.782,-1.715 h -29.496 v 29.497 h 29.496 z" />
      <path
         inkscape:connector-curvature="0"
         id="path64"
         style="fill:#002b74;fill-opacity:1;fill-rule:nonzero;stroke:none"
         d="m 169.062,265.423 h 61.288 v 5.742 h -61.288 z" />
      <path
         inkscape:connector-curvature="0"
         id="path66"
         style="fill:#ededed;fill-opacity:1;fill-rule:nonzero;stroke:none"
         d="m 169.062,257.335 h 117.156 v 1.953 H 169.062 Z" />
      <path
         inkscape:connector-curvature="0"
         id="path68"
         style="fill:#ededed;fill-opacity:1;fill-rule:nonzero;stroke:none"
         d="m 169.062,249.502 h 117.156 v 1.953 H 169.062 Z" />
      <path
         inkscape:connector-curvature="0"
         id="path70"
         style="fill:#ededed;fill-opacity:1;fill-rule:nonzero;stroke:none"
         d="m 169.062,241.669 h 117.156 v 1.953 H 169.062 Z" />
      <path
         inkscape:connector-curvature="0"
         id="path72"
         style="fill:#002b74;fill-opacity:1;fill-rule:nonzero;stroke:none"
         d="m 305.027,185.446 h 26.065 v 26.065 h -26.065 z m 27.782,-1.716 h -29.496 v 29.497 h 29.496 z" />
      <path
         inkscape:connector-curvature="0"
         id="path74"
         style="fill:#672342;fill-opacity:1;fill-rule:nonzero;stroke:none"
         d="m 169.062,207.485 h 61.288 v 5.742 h -61.288 z" />
      <path
         inkscape:connector-curvature="0"
         id="path76"
         style="fill:#ededed;fill-opacity:1;fill-rule:nonzero;stroke:none"
         d="m 169.062,199.397 h 117.156 v 1.952 H 169.062 Z" />
      <path
         inkscape:connector-curvature="0"
         id="path78"
         style="fill:#ededed;fill-opacity:1;fill-rule:nonzero;stroke:none"
         d="m 169.062,191.564 h 117.156 v 1.952 H 169.062 Z" />
      <path
         inkscape:connector-curvature="0"
         id="path80"
         style="fill:#ededed;fill-opacity:1;fill-rule:nonzero;stroke:none"
         d="m 169.062,183.73 h 117.156 v 1.953 H 169.062 Z" />
      <g
         style="fill:#672342;fill-opacity:1"
         transform="translate(302.2627,322.0122)"
         id="g82">
        <path
           inkscape:connector-curvature="0"
           id="path84"
           style="fill:#672342;fill-opacity:1;fill-rule:nonzero;stroke:none"
           d="m 0,0 c 0,0 9.641,-5.707 15.194,-16.737 0,0 12.937,20.64 27.201,25.72 l -3.698,4.92 c 0,0 -12.283,-7.396 -22.848,-25.812 0,0 -4.227,10.492 -11.755,16.7 z" />
      </g>
      <g
         style="fill:#672342;fill-opacity:1"
         transform="translate(309.0342,265.1787)"
         id="g86">
        <path
           inkscape:connector-curvature="0"
           id="path88"
           style="fill:#672342;fill-opacity:1;fill-rule:nonzero;stroke:none"
           d="m 0,0 c 0,0 9.642,-5.707 15.195,-16.737 0,0 12.937,20.639 27.201,25.72 l -3.699,4.92 c 0,0 -12.283,-7.396 -22.848,-25.812 0,0 -4.227,10.492 -11.754,16.7 z" />
      </g>
      <g
         transform="translate(352.0283,233.0381)"
         id="g90">
        <path
           inkscape:connector-curvature="0"
           id="path92"
           style="fill:#009ff0;fill-opacity:1;fill-rule:nonzero;stroke:none"
           d="m 0,0 c 0,0 -12.029,17.956 -18.481,22.301 0,0 -3.165,-3.468 -4.238,-6.178 0,0 12.028,-14.907 14.739,-20.328 z" />
      </g>
      <g
         transform="translate(369.4209,106.2559)"
         id="g94">
        <path
           inkscape:connector-curvature="0"
           id="path96"
           style="fill:#009ff0;fill-opacity:1;fill-rule:nonzero;stroke:none"
           d="m 0,0 c 0,0 -1.106,-3.004 -4.386,-6.071 -3.279,-3.068 -5.221,-5.584 -3.698,-6.215 1.523,-0.631 13.668,3.327 16.52,4.497 2.862,1.175 5.039,1.301 -0.331,9.981 z" />
      </g>
      <g
         transform="translate(355.6943,170.7578)"
         id="g98">
        <path
           inkscape:connector-curvature="0"
           id="path100"
           style="fill:#002b74;fill-opacity:1;fill-rule:nonzero;stroke:none"
           d="m 0,0 c 0,0 -4.979,-36.127 13.727,-64.502 l 8.105,2.192 c 0,0 -13.589,33.407 -10.224,52.965 l 4.883,0.746 c 0,0 9.082,-24.588 46.494,-24.588 v 8.887 c 0,0 -37.015,-0.661 -36.589,33.345 z" />
      </g>
      <g
         transform="translate(372.3369,107.0449)"
         id="g102">
        <path
           inkscape:connector-curvature="0"
           id="path104"
           style="fill:#001736;fill-opacity:1;fill-rule:nonzero;stroke:none"
           d="m 0,0 v 0 c -17.604,23.951 -10.51,64.634 -10.51,64.634 v 1.18 l -6.133,-2.101 c 0,0 -4.979,-36.127 13.727,-64.502 z" />
      </g>
      <g
         transform="translate(418.6797,141.6377)"
         id="g106">
        <path
           inkscape:connector-curvature="0"
           id="path108"
           style="fill:#001736;fill-opacity:1;fill-rule:nonzero;stroke:none"
           d="m 0,0 c -27.316,-2.643 -42.042,19.639 -42.042,19.639 2.248,3.276 1.579,8.896 1.579,8.896 -1.27,-3.751 -10.914,-8.76 -10.914,-8.76 l 4.883,0.746 c 0,0 9.082,-24.587 46.494,-24.587 z" />
      </g>
      <g
         transform="translate(352.8789,208.6934)"
         id="g110">
        <path
           inkscape:connector-curvature="0"
           id="path112"
           style="fill:#009ff0;fill-opacity:1;fill-rule:nonzero;stroke:none"
           d="m 0,0 c 0,0 -9.659,-10.901 -34.521,-20.8 l 2.795,-5.647 c 0,0 21.358,2.837 31.726,14.445 0,0 -0.137,-16.809 2.815,-25.934 0,0 22.822,2.564 26.396,9.045 0,0 -9.721,26.495 -19.727,38.074 z" />
      </g>
      <g
         transform="translate(363.7344,222.7275)"
         id="g114">
        <path
           inkscape:connector-curvature="0"
           id="path116"
           style="fill:#ffca9b;fill-opacity:1;fill-rule:nonzero;stroke:none"
           d="m 0,0 c 0,-6.799 -5.511,-12.31 -12.31,-12.31 -6.797,0 -12.309,5.511 -12.309,12.31 0,6.798 5.512,12.31 12.309,12.31 C -5.511,12.31 0,6.798 0,0" />
      </g>
      <g
         transform="translate(418.6797,137.5713)"
         id="g118">
        <path
           inkscape:connector-curvature="0"
           id="path120"
           style="fill:#009ff0;fill-opacity:1;fill-rule:nonzero;stroke:none"
           d="m 0,0 c 0,0 3.407,-1.85 6.739,-4.581 3.332,-2.731 5.969,-6.749 6.67,-4.297 C 14.11,-6.426 9.346,5.944 8.48,8.887 7.924,10.78 0,8.887 0,8.887 Z" />
      </g>
      <g
         transform="translate(339.4258,225.4766)"
         id="g122">
        <path
           inkscape:connector-curvature="0"
           id="path124"
           style="fill:#002b74;fill-opacity:1;fill-rule:nonzero;stroke:none"
           d="m 0,0 c 0,0 0.948,-2.749 6.474,-2.749 5.525,0 9.173,-1.189 9.649,-3.923 0,0 1.734,2.46 2.814,2.323 1.078,-0.136 1.012,-4.655 -1.278,-5.265 l 3.714,-1.594 c 0,0 5.321,6.711 2.936,14.785 -1.768,5.984 -6.344,5.984 -6.344,5.984 0,0 -5.155,3.771 -9.975,1.941 C 3.171,9.673 -1.286,3.3 -2.865,6.444 -2.865,6.444 -3.541,0.057 0,0" />
      </g>
      <g
         transform="translate(318.3584,187.8936)"
         id="g126">
        <path
           inkscape:connector-curvature="0"
           id="path128"
           style="fill:#ffca9b;fill-opacity:1;fill-rule:nonzero;stroke:none"
           d="m 0,0 c 0,0 -5.099,3.187 -7.251,2.394 -2.153,-0.793 3.625,-3.782 3.625,-3.782 0,0 -6.028,-4.417 -8.951,-5.964 -2.924,-1.546 7.286,-4.41 15.372,1.705 z" />
      </g>
      <g
         transform="translate(329.3096,249.1606)"
         id="g130">
        <path
           inkscape:connector-curvature="0"
           id="path132"
           style="fill:#ffca9b;fill-opacity:1;fill-rule:nonzero;stroke:none"
           d="m 0,0 c 0,0 -7.531,-0.465 -8.4,0.744 -0.87,1.21 2.868,2.068 5.559,2.083 0,0 2.571,10.752 4.857,11.585 C 6.591,16.079 4.237,6.178 4.237,6.178 4.237,6.178 0.615,1.525 0,0" />
      </g>
      <g
         transform="translate(339.4258,225.4766)"
         id="g134">
        <path
           inkscape:connector-curvature="0"
           id="path136"
           style="fill:#001736;fill-opacity:1;fill-rule:nonzero;stroke:none"
           d="m 0,0 c 0,0 0.948,-2.749 6.474,-2.749 5.525,0 9.173,-1.189 9.649,-3.923 0,0 1.734,2.46 2.814,2.323 1.078,-0.136 1.012,-4.655 -1.278,-5.265 l 3.714,-1.594 c 0,0 1.678,2.117 2.727,5.402 -0.124,1.908 -0.324,3.742 -0.642,4.696 -0.839,2.515 -2.852,1.509 -5.87,1.507 -3.02,-0.001 -2.852,4.363 -2.852,4.363 0,0 -3.689,-3.858 -8.721,-3.69 C 2.094,1.201 -1.1,4.383 -2.322,5.785 -2.529,5.924 -2.712,6.138 -2.865,6.444 -2.865,6.444 -3.541,0.057 0,0" />
      </g>
      <g
         transform="translate(356.1748,204.3174)"
         id="g138">
        <path
           inkscape:connector-curvature="0"
           id="path140"
           style="fill:#006ec5;fill-opacity:1;fill-rule:nonzero;stroke:none"
           d="m 0,0 c 0,0 -1.342,-1.755 -13.754,-10.001 -7.308,-4.855 -16.418,-7.704 -22.675,-9.227 l 1.408,-2.843 c 0,0 21.357,2.837 31.725,14.445 0,0 -0.137,-16.809 2.816,-25.934 0,0 2.579,0.291 6.132,0.921 C 0.158,-18.338 0,0 0,0" />
      </g>
      <g
         transform="translate(372.5977,102.1963)"
         id="g142">
        <path
           inkscape:connector-curvature="0"
           id="path144"
           style="fill:#006ec5;fill-opacity:1;fill-rule:nonzero;stroke:none"
           d="M 0,0 C 0.754,0.943 0.429,2.85 -0.261,4.849 L -3.177,4.06 c 0,0 -1.106,-3.004 -4.385,-6.072 -3.28,-3.067 -5.222,-5.584 -3.699,-6.215 0.443,-0.183 1.784,0.023 3.532,0.433 C -5.687,-3.55 -1.534,-1.917 0,0" />
      </g>
      <g
         transform="translate(432.0889,128.6934)"
         id="g146">
        <path
           inkscape:connector-curvature="0"
           id="path148"
           style="fill:#006ec5;fill-opacity:1;fill-rule:nonzero;stroke:none"
           d="m 0,0 c 0.208,0.726 -0.065,2.322 -0.572,4.283 -2.914,2.537 -6.706,5.817 -8.147,6.97 -0.74,0.592 -2.531,1.169 -4.69,1.691 V 8.878 c 0,0 3.407,-1.85 6.739,-4.581 C -3.338,1.565 -0.701,-2.452 0,0" />
      </g>
      <g
         transform="translate(256.8975,404.8511)"
         id="g150">
        <path
           inkscape:connector-curvature="0"
           id="path152"
           style="fill:#009ff0;fill-opacity:1;fill-rule:nonzero;stroke:none"
           d="m 0,0 c 0,0 32.466,-6.462 43.288,-44.898 h -7.049 c 0,0 -12.06,26.961 -28.805,29.096 h -41.46 c 0,0 9.12,12.102 21.573,13.952 z" />
      </g>
      <g
         transform="translate(285.6699,376.7012)"
         id="g154">
        <path
           inkscape:connector-curvature="0"
           id="path156"
           style="fill:#006ec5;fill-opacity:1;fill-rule:nonzero;stroke:none"
           d="m 0,0 c -9.427,10.586 -15.808,16.097 -22.623,16.532 -6.816,0.435 -13.487,-0.145 -16.532,3.481 -1.4,1.666 -2.826,3.941 -3.963,5.917 -11.473,-2.7 -19.681,-13.582 -19.681,-13.582 h 41.46 C -4.594,10.212 7.467,-16.749 7.467,-16.749 H 9.688 C 8.197,-12.344 5.325,-5.981 0,0" />
      </g>
      <g
         transform="translate(263.7168,407.7197)"
         id="g158">
        <path
           inkscape:connector-curvature="0"
           id="path160"
           style="fill:#ffca9b;fill-opacity:1;fill-rule:nonzero;stroke:none"
           d="m 0,0 c -0.431,0.158 -0.888,0.15 -1.315,0.007 0,0.007 10e-4,0.014 10e-4,0.02 0,7.006 -5.679,12.684 -12.685,12.684 -7.005,0 -12.684,-5.678 -12.684,-12.684 0,-0.006 0.001,-0.013 0.001,-0.02 -0.428,0.143 -0.885,0.151 -1.316,-0.007 -1.144,-0.42 -1.671,-1.854 -1.176,-3.201 0.495,-1.347 1.824,-2.098 2.968,-1.678 0.155,0.057 0.295,0.134 0.426,0.225 1.864,-4.686 6.431,-8.003 11.781,-8.003 5.351,0 9.917,3.317 11.781,8.003 0.131,-0.091 0.272,-0.168 0.426,-0.225 1.145,-0.42 2.474,0.331 2.969,1.678 C 1.671,-1.854 1.145,-0.42 0,0" />
      </g>
      <g
         transform="translate(240.6343,409.6802)"
         id="g162">
        <path
           inkscape:connector-curvature="0"
           id="path164"
           style="fill:#fdb080;fill-opacity:1;fill-rule:nonzero;stroke:none"
           d="M 0,0 C 0,3.693 1.428,7.045 3.748,9.563 -0.588,7.546 -3.601,3.164 -3.601,-1.933 c 0,-0.007 10e-4,-0.013 10e-4,-0.02 -0.428,0.142 -0.884,0.151 -1.315,-0.007 -1.145,-0.421 -1.671,-1.854 -1.177,-3.201 0.495,-1.347 1.824,-2.099 2.969,-1.678 0.154,0.056 0.295,0.134 0.426,0.225 1.864,-4.686 6.43,-8.003 11.78,-8.003 1.288,0 2.528,0.196 3.698,0.553 C 5.61,-13.383 0,-7.349 0,0" />
      </g>
      <g
         transform="translate(253.4229,415.1929)"
         id="g166">
        <path
           inkscape:connector-curvature="0"
           id="path168"
           style="fill:#002b74;fill-opacity:1;fill-rule:nonzero;stroke:none"
           d="m 0,0 c 0,0 -4.371,-6.758 -10.623,-7.446 l 1.357,3.644 c 0,0 -5.482,-1.864 -6.204,-5.524 0,0 -1.219,1.786 -2.234,1.853 0,0 -1.362,18.635 16.517,16.089 l -1.008,2.034 c 0,0 6.834,-0.628 9.019,-6.847 0,0 4.405,-1.559 3.47,-11.276 0,0 -1.202,0.627 -2.311,-1.042 0,0 -1.365,7.689 -7.983,8.515" />
      </g>
      <g
         transform="translate(293.1367,359.9526)"
         id="g170">
        <path
           inkscape:connector-curvature="0"
           id="path172"
           style="fill:#ffca9b;fill-opacity:1;fill-rule:nonzero;stroke:none"
           d="m 0,0 c 0,0 -1.905,-4.382 -1.602,-5.684 0.304,-1.301 2.158,-0.532 3.184,1.736 0,0 2.934,-0.174 4.496,-3.211 1.562,-3.037 2.863,-5.293 3.558,-3.384 C 10.33,-8.634 11.144,-5.25 7.049,0 Z" />
      </g>
      <g
         transform="translate(227.0137,390.0229)"
         id="g174">
        <path
           inkscape:connector-curvature="0"
           id="path176"
           style="fill:#ffca9b;fill-opacity:1;fill-rule:nonzero;stroke:none"
           d="M 0,0 C 0,0 -7.967,1.275 -8.427,-0.421 -8.888,-2.118 -9.365,-5.135 -7.708,-5.689 -6.05,-6.244 2.081,-6.228 2.379,-4.501 2.677,-2.776 3.043,-0.356 0,0" />
      </g>
      <g
         transform="translate(249.7178,416.9546)"
         id="g178">
        <path
           inkscape:connector-curvature="0"
           id="path180"
           style="fill:#001736;fill-opacity:1;fill-rule:nonzero;stroke:none"
           d="m 0,0 c -4.585,0.492 -9.19,-1.1 -9.19,-1.1 2.554,5.446 6.504,7.503 8.274,8.183 -14.254,-0.182 -13.083,-16.318 -13.083,-16.318 1.015,-0.067 2.234,-1.853 2.234,-1.853 0.722,3.661 6.204,5.524 6.204,5.524 L -6.917,-9.208 C -1.553,-6.115 0,0 0,0" />
      </g>
      <g
         transform="translate(242.6836,115.5537)"
         id="g182">
        <path
           inkscape:connector-curvature="0"
           id="path184"
           style="fill:#002b74;fill-opacity:1;fill-rule:nonzero;stroke:none"
           d="m 0,0 -13.79,2.719 0.008,1.345 -3.417,-0.673 -3.416,0.673 0.008,-1.345 L -34.397,0 c 0,0 -19.031,-6.015 -18.146,-14.478 0.811,-7.754 22.475,-10.032 35.344,-6.249 12.87,-3.783 34.534,-1.505 35.345,6.249 C 19.031,-6.015 0,0 0,0" />
      </g>
      <g
         transform="translate(260.8291,101.0762)"
         id="g186">
        <path
           inkscape:connector-curvature="0"
           id="path188"
           style="fill:#001736;fill-opacity:1;fill-rule:nonzero;stroke:none"
           d="m 0,0 c 0.022,0.213 0.023,0.422 0.021,0.631 -5.794,-4.956 -20.248,-4.264 -21.589,0.212 -1.444,4.819 6.263,6.279 6.263,6.279 h -22.634 c -6.133,-10e-4 -11.49,-1.314 -11.49,-1.314 l 14.103,-2.386 4.113,-6.233 c 0,0 -31.988,1.756 -31.696,6.233 0.292,4.477 23.432,13.631 23.434,13.632 l -13.067,-2.576 c 0,0 -19.031,-6.015 -18.146,-14.478 0.811,-7.755 22.475,-10.032 35.344,-6.249 C -22.475,-10.032 -0.811,-7.755 0,0" />
      </g>
      <g
         transform="translate(283.3887,165.7451)"
         id="g190">
        <path
           inkscape:connector-curvature="0"
           id="path192"
           style="fill:#ffca9b;fill-opacity:1;fill-rule:nonzero;stroke:none"
           d="m 0,0 -0.95,2.97 c 0,0 -3.61,5.133 -2.288,6.371 1.321,1.238 1.415,-1.824 4.167,-2.933 C 3.68,5.299 15.062,10.881 15.782,8.876 16.418,7.104 6.688,2.97 3.696,-0.775 Z" />
      </g>
      <g
         transform="translate(224.7163,158.0303)"
         id="g194">
        <path
           inkscape:connector-curvature="0"
           id="path196"
           style="fill:#009ff0;fill-opacity:1;fill-rule:nonzero;stroke:none"
           d="m 0,0 c 0,0 -13.403,-4.738 -15.216,-5.943 -2.775,-1.845 -13.549,-23.687 -12.41,-26.828 2.206,-6.083 20.532,-8.959 20.532,-8.959 h 23.242 l 3.713,29.018 c 0,0 21.013,-0.375 23.175,-0.022 5.117,0.833 19.333,19.673 19.333,19.673 0,0 -3.256,4.034 -4.647,3.746 0,0 -15.38,-14.942 -17.597,-15.217 C 37.909,-4.808 5.423,-0.065 3.585,-0.026 1.747,0.012 0,0 0,0" />
      </g>
      <g
         transform="translate(210.2061,152.4687)"
         id="g198">
        <path
           inkscape:connector-curvature="0"
           id="path200"
           style="fill:#006ec5;fill-opacity:1;fill-rule:nonzero;stroke:none"
           d="m 0,0 c -0.307,-0.149 -0.552,-0.279 -0.706,-0.382 -2.775,-1.845 -13.548,-23.686 -12.41,-26.827 1.123,-3.097 6.423,-5.361 11.357,-6.84 l 1.695,3.468 c 0,0 -10.215,5.707 -9.553,7.609 C -9.032,-21.289 -2.102,-4.692 0,0" />
      </g>
      <g
         transform="translate(229.1846,158.1348)"
         id="g202">
        <path
           inkscape:connector-curvature="0"
           id="path204"
           style="fill:#ec9b6f;fill-opacity:1;fill-rule:nonzero;stroke:none"
           d="m 0,0 c 0,-1.735 -1.656,-3.143 -3.7,-3.143 -2.043,0 -3.699,1.408 -3.699,3.143 0,1.735 1.656,3.142 3.699,3.142 C -1.656,3.142 0,1.735 0,0" />
      </g>
      <g
         transform="translate(239.502,170.6602)"
         id="g206">
        <path
           inkscape:connector-curvature="0"
           id="path208"
           style="fill:#ffca9b;fill-opacity:1;fill-rule:nonzero;stroke:none"
           d="m 0,0 c -0.431,0.158 -0.887,0.15 -1.315,0.008 0,0.007 10e-4,0.013 10e-4,0.019 0,7.006 -5.68,12.685 -12.685,12.685 -7.005,0 -12.684,-5.679 -12.684,-12.685 0,-0.006 0.001,-0.012 0.001,-0.019 -0.428,0.142 -0.884,0.15 -1.315,-0.008 -1.145,-0.42 -1.671,-1.854 -1.177,-3.2 0.495,-1.348 1.824,-2.099 2.969,-1.679 0.154,0.057 0.295,0.135 0.425,0.226 1.864,-4.687 6.431,-8.003 11.781,-8.003 5.351,0 9.917,3.316 11.781,8.003 0.131,-0.091 0.272,-0.169 0.426,-0.226 1.145,-0.42 2.474,0.331 2.969,1.679 C 1.671,-1.854 1.145,-0.42 0,0" />
      </g>
      <g
         transform="translate(230.3545,159.2803)"
         id="g210">
        <path
           inkscape:connector-curvature="0"
           id="path212"
           style="fill:#fdb385;fill-opacity:1;fill-rule:nonzero;stroke:none"
           d="m 0,0 c -8.89,0 -16.096,7.206 -16.096,16.096 0,0.44 0.031,0.873 0.066,1.304 -0.959,-1.785 -1.505,-3.825 -1.505,-5.993 0,-0.007 0.001,-0.012 0.001,-0.019 -0.429,0.142 -0.885,0.15 -1.316,-0.008 -1.144,-0.42 -1.671,-1.854 -1.176,-3.2 0.494,-1.348 1.824,-2.099 2.968,-1.679 0.155,0.057 0.295,0.135 0.426,0.226 1.864,-4.687 6.431,-8.003 11.781,-8.003 2.02,0 3.928,0.473 5.621,1.314 C 0.513,0.026 0.26,0 0,0" />
      </g>
      <g
         transform="translate(218.5469,176.8193)"
         id="g214">
        <path
           inkscape:connector-curvature="0"
           id="path216"
           style="fill:#002b74;fill-opacity:1;fill-rule:nonzero;stroke:none"
           d="m 0,0 c 0,0 1.737,-3.361 9.689,-3.087 7.953,0.274 8.868,-2.31 8.958,-5.017 0,0 0.387,1.932 2.308,1.945 0,0 1.047,7.437 -5.068,11.791 -9.248,6.583 -16.984,-0.846 -16.984,-0.846 0,0 -6.98,-1.686 -5.945,-10.945 0,0 1.923,0.055 2.563,-1.407 0,0 0.274,5.443 4.479,7.566" />
      </g>
      <g
         transform="translate(244.9854,141.0879)"
         id="g218">
        <path
           inkscape:connector-curvature="0"
           id="path220"
           style="fill:#cedcdc;fill-opacity:1;fill-rule:nonzero;stroke:none"
           d="m 0,0 h -38.964 c -0.351,0 -0.683,-0.083 -0.988,-0.247 -0.683,-0.366 -1.107,-1.074 -1.107,-1.848 v -20.599 c 0,-0.774 0.424,-1.482 1.107,-1.848 0.305,-0.163 0.637,-0.246 0.988,-0.246 H 0 c 0.707,0 1.361,0.352 1.75,0.943 0.226,0.341 0.344,0.74 0.344,1.151 v 20.599 c 0,0.56 -0.218,1.086 -0.613,1.482 C 1.086,-0.218 0.56,0 0,0" />
      </g>
      <g
         transform="translate(246.4326,113.7744)"
         id="g222">
        <path
           inkscape:connector-curvature="0"
           id="path224"
           style="fill:#a7bfeb;fill-opacity:1;fill-rule:nonzero;stroke:none"
           d="m 0,0 h -41.858 c -0.115,0 -0.223,0.03 -0.316,0.085 -0.198,0.115 -0.332,0.335 -0.332,0.588 v 1.18 c 0,0.185 0.073,0.353 0.19,0.475 0.117,0.121 0.279,0.197 0.458,0.197 H 0 C 0.179,2.525 0.34,2.449 0.458,2.328 0.575,2.206 0.647,2.038 0.647,1.853 V 0.673 C 0.647,0.51 0.591,0.36 0.499,0.244 0.38,0.095 0.201,0 0,0" />
      </g>
      <g
         transform="translate(229.6162,128.6934)"
         id="g226">
        <path
           inkscape:connector-curvature="0"
           id="path228"
           style="fill:#ffffff;fill-opacity:1;fill-rule:nonzero;stroke:none"
           d="m 0,0 c 0,-2.281 -1.85,-4.131 -4.131,-4.131 -2.282,0 -4.131,1.85 -4.131,4.131 0,2.281 1.849,4.131 4.131,4.131 C -1.85,4.131 0,2.281 0,0" />
      </g>
      <g
         transform="translate(225.4849,94.8271)"
         id="g230">
        <path
           inkscape:connector-curvature="0"
           id="path232"
           style="fill:#009ff0;fill-opacity:1;fill-rule:nonzero;stroke:none"
           d="M 0,0 C 0,0 3.443,0.919 6.406,-2.91 9.369,-6.739 13.529,-6.739 13.767,-4.733 14.005,-2.729 9.62,4.326 8.116,6.249 6.612,8.173 4.922,10.369 3.7,9.459 2.478,8.549 0.019,8.717 0.019,8.717 0.019,8.717 1.533,5.861 0,0" />
      </g>
      <g
         transform="translate(229.8198,175.7617)"
         id="g234">
        <path
           inkscape:connector-curvature="0"
           id="path236"
           style="fill:#001736;fill-opacity:1;fill-rule:nonzero;stroke:none"
           d="m 0,0 c -6.038,-0.671 -9.309,3.355 -9.309,3.355 -3.858,-0.838 -6.038,-2.935 -6.038,-2.935 0.687,2.519 1.686,4.295 2.252,5.169 -1.755,-0.729 -6.048,-3.284 -5.22,-10.691 0,0 1.923,0.056 2.563,-1.407 0,0 0.274,5.444 4.479,7.567 0,0 1.737,-3.362 9.689,-3.087 C 6.369,-1.755 7.284,-4.34 7.375,-7.047 7.906,-3.01 6.039,0.671 0,0" />
      </g>
      <g
         transform="translate(267.752,145.2959)"
         id="g238">
        <path
           inkscape:connector-curvature="0"
           id="path240"
           style="fill:#006ec5;fill-opacity:1;fill-rule:nonzero;stroke:none"
           d="m 0,0 c 5.117,0.833 19.333,19.674 19.333,19.674 0,0 -0.561,0.692 -1.313,1.481 C 13.256,15.727 1.399,2.354 -0.102,1.979 -1.986,1.507 -22.808,2.886 -22.808,2.886 l -0.367,-2.865 c 0,0 21.013,-0.374 23.175,-0.021" />
      </g>
      <g
         transform="translate(231.8906,91.917)"
         id="g242">
        <path
           inkscape:connector-curvature="0"
           id="path244"
           style="fill:#006ec5;fill-opacity:1;fill-rule:nonzero;stroke:none"
           d="M 0,0 C 2.963,-3.828 7.124,-3.828 7.361,-1.823 7.394,-1.555 7.337,-1.188 7.22,-0.762 6.613,-0.891 5.881,-0.939 5.064,-0.766 2.797,-0.281 1.967,3.055 -0.408,4.714 -1.576,5.529 -3.816,6.039 -5.792,6.349 -5.883,5.345 -6.067,4.205 -6.406,2.91 -6.406,2.91 -2.963,3.829 0,0" />
      </g>
      <g
         style="fill:#672342;fill-opacity:1"
         transform="translate(271.8896,190.4141)"
         id="g246">
        <path
           inkscape:connector-curvature="0"
           id="path248"
           style="fill:#672342;fill-opacity:1;fill-rule:nonzero;stroke:none"
           d="m 0,0 c 0,0 9.642,-5.707 15.195,-16.737 0,0 12.937,20.639 27.201,25.72 l -3.699,4.92 c 0,0 -12.282,-7.395 -22.848,-25.812 0,0 -4.226,10.492 -11.754,16.7 z" />
      </g>
      <g
         transform="translate(98.6587,156.4092)"
         id="g266">
        <path
           inkscape:connector-curvature="0"
           id="path268"
           style="fill:#ffffff;fill-opacity:1;fill-rule:nonzero;stroke:none"
           d="m 0,0 c 0.123,0.221 -0.189,0.489 -0.364,0.281 -1.241,-1.481 -1.439,-3.338 -1.152,-5.215 0.252,-1.648 0.949,-3.159 1.459,-4.734 0.703,-2.173 0.706,-3.81 0.23,-6.017 -0.107,-0.493 0.521,-0.753 0.803,-0.338 C 4.374,-11.007 -3.003,-5.375 0,0" />
      </g>
      <g
         transform="translate(103.7397,158.2422)"
         id="g270">
        <path
           inkscape:connector-curvature="0"
           id="path272"
           style="fill:#ffffff;fill-opacity:1;fill-rule:nonzero;stroke:none"
           d="m 0,0 c 0.305,0.339 -0.159,0.801 -0.5,0.499 -6.559,-5.787 2.001,-13.704 -1.137,-20.465 -0.32,-0.688 0.602,-1.596 1.151,-0.888 C 4.558,-14.334 -5.798,-6.441 0,0" />
      </g>
      <g
         transform="translate(108.5049,144.2861)"
         id="g274">
        <path
           inkscape:connector-curvature="0"
           id="path276"
           style="fill:#ffffff;fill-opacity:1;fill-rule:nonzero;stroke:none"
           d="m 0,0 c -1.058,3.668 -3.011,7.937 -0.147,11.324 0.334,0.395 -0.205,0.956 -0.576,0.575 -1.89,-1.94 -2.342,-4.383 -2.01,-7.019 0.229,-1.816 0.877,-3.507 1.301,-5.276 0.688,-2.872 -0.172,-4.47 -0.748,-7.182 C -2.33,-8.28 -1.439,-8.65 -1.037,-8.061 0.629,-5.615 0.799,-2.772 0,0" />
      </g>
      <text
         transform="scale(1,-1)"
         id="text1177"
         y="-344.19022"
         x="168.91164"
         style="font-style:normal;font-weight:normal;font-size:30px;line-height:1.25;font-family:sans-serif;letter-spacing:0px;word-spacing:0px;fill:#2f4356;fill-opacity:1;stroke:none;stroke-width:0.75"
         xml:space="preserve"><tspan
           style="font-style:normal;font-variant:normal;font-weight:bold;font-stretch:normal;font-size:14px;font-family:Umpush;-inkscape-font-specification:'Umpush Bold';fill:#2f4356;fill-opacity:1;stroke-width:0.75"
           y="-344.19022"
           x="168.91164"
           id="tspan1175"
           sodipodi:role="line">Validación</tspan></text>
    </g>
  </g>
</svg>
